<svg width="24" height="39" viewBox="0 0 24 39" fill="none" xmlns="http://www.w3.org/2000/svg">
<path d="M15.6454 13.4297L15.6086 26.8463L15.2901 27.5641C14.6041 29.1303 13.9916 29.5871 11.3823 30.5007L9.48354 31.1663L9.44679 32.1451C9.43454 32.6802 9.47129 33.1892 9.53254 33.2936C9.61829 33.4372 10.047 33.3197 11.7621 32.7194C12.9381 32.3017 14.1631 31.8188 14.5061 31.6492C15.3146 31.2054 16.5029 29.9003 16.9807 28.9345C17.7769 27.3031 17.7524 27.8382 17.7524 14.0431L17.7402 1.52698L17.0542 1.00494C16.6744 0.717808 16.2089 0.378477 16.0129 0.247965L15.6699 -8.14212e-06L15.6454 13.4297Z" fill="url(#paint0_linear_37_17)"/>
<path d="M18.7324 14.8784C18.7324 28.5038 18.7569 27.9687 17.9607 29.574C17.4462 30.6312 16.1721 31.9885 15.2411 32.4845C14.8369 32.7063 13.5383 33.2153 12.3623 33.633C11.1863 34.0506 10.194 34.416 10.1573 34.4552C10.0348 34.5596 10.9536 35.2644 11.4803 35.4601C12.3256 35.7603 12.9013 35.6951 14.4939 35.1339C16.4294 34.4421 17.1277 33.9984 18.3037 32.7324C19.4307 31.5187 20.1657 30.1614 20.5945 28.53C20.864 27.512 20.864 27.3945 20.9007 15.8181C20.9252 9.39688 20.9007 4.07199 20.8517 4.00673C20.6925 3.78486 18.9897 2.50584 18.8549 2.50584C18.7692 2.50584 18.7324 6.59087 18.7324 14.8784Z" fill="url(#paint1_linear_37_17)"/>
<path d="M21.893 16.562C21.844 28.1645 21.844 28.295 21.5867 29.1694C20.7782 31.858 19.2592 33.894 17.0786 35.1991C16.2089 35.7081 14.0406 36.5434 13.1218 36.7C11.2231 37.0393 9.17728 35.7081 8.54027 33.7243C8.41777 33.3589 8.38102 30.7878 8.34427 22.9701L8.31977 12.6988L7.33975 11.981C6.80074 11.5764 6.33524 11.2501 6.29849 11.2501C6.26174 11.2501 6.23724 16.1052 6.23724 22.0435C6.23724 33.9462 6.23724 33.894 6.99675 35.434C8.16051 37.8093 10.9291 39.3494 13.3178 38.9317C14.2734 38.7751 16.6254 37.9399 17.5687 37.4439C20.962 35.6428 23.2895 32.2756 23.8775 28.3472C23.951 27.8121 24 23.5313 24 16.9274V6.35593L23.0567 5.63812C22.5422 5.24658 22.0767 4.90725 22.0277 4.88115C21.9665 4.85504 21.9052 10.1147 21.893 16.562Z" fill="url(#paint2_linear_37_17)"/>
<path d="M0.00190389 17.4755C0.00190389 29.8089 -0.0103463 29.4827 0.847166 30.9966C1.37392 31.9232 2.63569 33.2806 2.51319 32.7846C2.08443 31.0619 2.07218 30.9574 2.07218 19.3419V7.92206L1.12892 7.20424C0.614413 6.81271 0.148906 6.46033 0.0876552 6.44727C0.0386544 6.42117 -0.0103463 11.3806 0.00190389 17.4755Z" fill="url(#paint3_linear_37_17)"/>
<path d="M3.11344 20.0206C3.19919 32.5628 3.16244 32.0929 4.1547 33.6721C4.64471 34.4421 5.58798 35.4732 5.71048 35.3557C5.73498 35.3166 5.66148 35.0033 5.53897 34.651C5.33072 34.0637 5.31847 33.2284 5.25722 22.174C5.22047 14.0953 5.15922 10.2974 5.06122 10.2321C4.99997 10.1799 4.57121 9.86671 4.1302 9.51433C3.6892 9.175 3.26044 8.90092 3.17469 8.90092C3.06444 8.90092 3.05219 11.3154 3.11344 20.0206Z" fill="url(#paint4_linear_37_17)"/>
<defs>
<linearGradient id="paint0_linear_37_17" x1="16.3678" y1="2.13774" x2="-1.30045" y2="21.4763" gradientUnits="userSpaceOnUse">
<stop stop-color="#5EEAD4"/>
<stop offset="1" stop-color="#096C64"/>
</linearGradient>
<linearGradient id="paint1_linear_37_17" x1="19.1163" y1="4.62963" x2="2.55184" y2="28.2743" gradientUnits="userSpaceOnUse">
<stop stop-color="#5EEAD4"/>
<stop offset="1" stop-color="#096C64"/>
</linearGradient>
<linearGradient id="paint2_linear_37_17" x1="21.0395" y1="7.06816" x2="7.71604" y2="37.5433" gradientUnits="userSpaceOnUse">
<stop stop-color="#5EEAD4"/>
<stop offset="1" stop-color="#096C64"/>
</linearGradient>
<linearGradient id="paint3_linear_37_17" x1="2.10126" y1="8.14225" x2="-7.92542" y2="12.3429" gradientUnits="userSpaceOnUse">
<stop stop-color="#5EEAD4"/>
<stop offset="1" stop-color="#096C64"/>
</linearGradient>
<linearGradient id="paint4_linear_37_17" x1="5.27544" y1="10.5973" x2="-5.07214" y2="15.1298" gradientUnits="userSpaceOnUse">
<stop stop-color="#5EEAD4"/>
<stop offset="1" stop-color="#096C64"/>
</linearGradient>
</defs>
</svg>
