<svg width="42" height="42" viewBox="0 0 42 42" fill="none" xmlns="http://www.w3.org/2000/svg">
<rect width="42" height="42" rx="21" fill="url(#paint0_linear_38_48)"/>
<path d="M24.0378 16.3305L24.0072 26.651L23.7418 27.2032C23.1701 28.4079 22.6597 28.7593 20.4853 29.4621L18.9029 29.9741L18.8723 30.727C18.8621 31.1386 18.8927 31.5302 18.9438 31.6105C19.0152 31.7209 19.3725 31.6306 20.8017 31.1688C21.7817 30.8475 22.8026 30.476 23.0884 30.3455C23.7622 30.0042 24.7524 29.0002 25.1505 28.2573C25.8141 27.0024 25.7937 27.414 25.7937 16.8024L25.7835 7.17461L25.2118 6.77303C24.8953 6.55217 24.5074 6.29114 24.3441 6.19075L24.0582 6L24.0378 16.3305Z" fill="url(#paint1_linear_38_48)"/>
<path d="M26.6104 17.4449C26.6104 27.926 26.6308 27.5144 25.9672 28.7493C25.5385 29.5625 24.4768 30.6066 23.7009 30.988C23.3641 31.1587 22.282 31.5503 21.3019 31.8715C20.3219 32.1928 19.495 32.4739 19.4644 32.504C19.3623 32.5843 20.128 33.1264 20.5669 33.277C21.2713 33.5079 21.7511 33.4577 23.0782 33.026C24.6912 32.494 25.273 32.1526 26.2531 31.1788C27.1922 30.2451 27.8048 29.201 28.162 27.9461C28.3866 27.163 28.3866 27.0727 28.4173 18.1677C28.4377 13.2284 28.4173 9.13229 28.3764 9.0821C28.2437 8.91143 26.8247 7.92757 26.7124 7.92757C26.641 7.92757 26.6104 11.0699 26.6104 17.4449Z" fill="url(#paint2_linear_38_48)"/>
<path d="M29.2441 18.74C29.2033 27.665 29.2033 27.7654 28.9889 28.438C28.3152 30.5061 27.0493 32.0723 25.2322 33.0762C24.5074 33.4678 22.7005 34.1103 21.9349 34.2308C20.3525 34.4918 18.6477 33.4678 18.1169 31.9418C18.0148 31.6607 17.9842 29.6829 17.9536 23.6693L17.9331 15.7683L17.1165 15.2162C16.6673 14.9049 16.2794 14.654 16.2487 14.654C16.2181 14.654 16.1977 18.3886 16.1977 22.9565C16.1977 32.1125 16.1977 32.0723 16.8306 33.2569C17.8004 35.0841 20.1075 36.2688 22.0982 35.9475C22.8945 35.827 24.8545 35.1845 25.6405 34.803C28.4683 33.4176 30.4079 30.8274 30.8979 27.8056C30.9592 27.3939 31 24.101 31 19.0211V10.8892L30.2139 10.337C29.7852 10.0358 29.3973 9.77481 29.3564 9.75473C29.3054 9.73465 29.2543 13.7805 29.2441 18.74Z" fill="url(#paint3_linear_38_48)"/>
<path d="M11.0016 19.4427C11.0016 28.93 10.9914 28.679 11.706 29.8435C12.1449 30.5563 13.1964 31.6004 13.0943 31.2189C12.737 29.8937 12.7268 29.8134 12.7268 20.8784V12.0939L11.9408 11.5417C11.512 11.2405 11.1241 10.9695 11.073 10.9594C11.0322 10.9394 10.9914 14.7543 11.0016 19.4427Z" fill="url(#paint4_linear_38_48)"/>
<path d="M13.5945 21.4004C13.666 31.0483 13.6354 30.6869 14.4622 31.9016C14.8706 32.494 15.6566 33.2871 15.7587 33.1967C15.7791 33.1666 15.7179 32.9256 15.6158 32.6546C15.4423 32.2028 15.4321 31.5603 15.381 23.0569C15.3504 16.8425 15.2993 13.9211 15.2177 13.8709C15.1666 13.8307 14.8093 13.5898 14.4418 13.3187C14.0743 13.0577 13.717 12.8469 13.6456 12.8469C13.5537 12.8469 13.5435 14.7042 13.5945 21.4004Z" fill="url(#paint5_linear_38_48)"/>
<defs>
<linearGradient id="paint0_linear_38_48" x1="11" y1="39.5" x2="33.5" y2="6.5" gradientUnits="userSpaceOnUse">
<stop stop-color="#09090B"/>
<stop offset="0.0001" stop-color="#09090B"/>
<stop offset="1" stop-color="#1D1D21"/>
</linearGradient>
<linearGradient id="paint1_linear_38_48" x1="24.6398" y1="7.64442" x2="11.1891" y2="23.5936" gradientUnits="userSpaceOnUse">
<stop stop-color="#5EEAD4"/>
<stop offset="1" stop-color="#096C64"/>
</linearGradient>
<linearGradient id="paint2_linear_38_48" x1="26.9303" y1="9.56125" x2="14.5664" y2="28.6806" gradientUnits="userSpaceOnUse">
<stop stop-color="#5EEAD4"/>
<stop offset="1" stop-color="#096C64"/>
</linearGradient>
<linearGradient id="paint3_linear_38_48" x1="28.5329" y1="11.437" x2="18.8424" y2="35.4495" gradientUnits="userSpaceOnUse">
<stop stop-color="#5EEAD4"/>
<stop offset="1" stop-color="#096C64"/>
</linearGradient>
<linearGradient id="paint4_linear_38_48" x1="12.7511" y1="12.2633" x2="4.6066" y2="15.9597" gradientUnits="userSpaceOnUse">
<stop stop-color="#5EEAD4"/>
<stop offset="1" stop-color="#096C64"/>
</linearGradient>
<linearGradient id="paint5_linear_38_48" x1="15.3962" y1="14.1518" x2="7.00765" y2="18.1324" gradientUnits="userSpaceOnUse">
<stop stop-color="#5EEAD4"/>
<stop offset="1" stop-color="#096C64"/>
</linearGradient>
</defs>
</svg>
